<svg width="32" height="33" viewBox="0 0 32 33" fill="none" xmlns="http://www.w3.org/2000/svg">
<path d="M15.6657 16.6674C14.2507 16.6674 12.8945 16.1049 11.8945 15.1049C10.8946 14.1049 10.332 12.7486 10.332 11.3337C10.332 9.91875 10.8945 8.56243 11.8945 7.5625C12.8945 6.56256 14.2508 6 15.6657 6C17.0807 6 18.437 6.5625 19.4369 7.5625C20.4369 8.5625 20.9994 9.91875 20.9994 11.3337C20.9994 12.7486 20.4369 14.105 19.4369 15.1049C18.4369 16.1048 17.0807 16.6674 15.6657 16.6674ZM15.6657 8.13363C14.372 8.13363 13.2045 8.91363 12.7095 10.1086C12.2145 11.3049 12.4882 12.6812 13.4032 13.596C14.3182 14.511 15.6945 14.7847 16.8906 14.2898C18.0856 13.7948 18.8656 12.6273 18.8656 11.3335C18.8656 9.56602 17.4332 8.13363 15.6657 8.13363Z" fill="#0B3204"/>
<path d="M25.2662 28.3999H6.06624C5.4775 28.3999 5 27.9224 5 27.3337V25.1999C5 23.5024 5.67376 21.8748 6.87376 20.6748C8.07376 19.4748 9.7025 18.7998 11.4002 18.7998H19.9339H19.9327C21.6302 18.7998 23.2591 19.4748 24.4591 20.6748C25.6591 21.8748 26.3328 23.5023 26.3328 25.1999V27.3337C26.3328 27.6162 26.2203 27.8875 26.0203 28.0875C25.8203 28.2875 25.5491 28.4 25.2666 28.4L25.2662 28.3999ZM7.13248 26.2674H24.2V25.1999C24.2 24.0687 23.75 22.9837 22.95 22.1837C22.15 21.3837 21.065 20.9337 19.9325 20.9337H11.4C9.04378 20.9337 7.13251 22.8437 7.13251 25.1999L7.13248 26.2674Z" fill="#0B3204"/>
</svg>
