<svg width="32" height="33" viewBox="0 0 32 33" fill="none" xmlns="http://www.w3.org/2000/svg">
<path d="M17.5732 11.9797C18.0688 11.9797 18.4658 12.3889 18.4658 12.887C18.4657 13.3849 18.0687 13.7932 17.5732 13.7932H15.4326C14.9372 13.7931 14.5402 13.3848 14.54 12.887C14.54 12.389 14.9371 11.9799 15.4326 11.9797H17.5732Z" fill="#0B3204" stroke="#0B3204" stroke-width="0.3"/>
<path d="M10.5967 11.9802C11.0921 11.9805 11.4883 12.3895 11.4883 12.8875C11.4881 13.3852 11.092 13.7934 10.5967 13.7937H9.6582C9.44516 13.7939 9.2612 13.9395 9.21094 14.157L9.21191 14.158L6.64648 25.7615C6.61491 25.9059 6.652 26.0199 6.69434 26.0955L6.73633 26.158L6.7373 26.1599L6.78809 26.2156C6.85061 26.2738 6.95001 26.3336 7.0918 26.3337H25.9082C26.0982 26.3337 26.2112 26.2261 26.2637 26.1589C26.317 26.0893 26.3953 25.9523 26.3535 25.7615V25.7605L23.7891 14.1589L23.7646 14.0808C23.6943 13.9065 23.5305 13.7937 23.3418 13.7937H22.6104C22.1149 13.7937 21.7179 13.3854 21.7178 12.8875C21.7178 12.3894 22.1147 11.9802 22.6104 11.9802H23.3418C24.4005 11.9802 25.2992 12.7156 25.5303 13.7634L28.0947 25.366L28.1367 25.6218C28.1915 26.1332 28.0763 26.6454 27.8066 27.0808L27.6592 27.2917C27.2318 27.8365 26.5927 28.1488 25.9082 28.1492V28.1501H7.09375C6.49451 28.1501 5.92845 27.9104 5.51074 27.4851L5.3418 27.2917C4.91441 26.747 4.75447 26.0453 4.90527 25.366L7.4707 13.7634L7.52148 13.571C7.8144 12.6278 8.6669 11.9804 9.6582 11.9802H10.5967Z" fill="#0B3204" stroke="#0B3204" stroke-width="0.3"/>
<path d="M16.5049 5.84961C18.972 5.84961 20.9765 7.89499 20.9766 10.4033V15.5781C20.9766 16.076 20.5804 16.4841 20.085 16.4844H20.082C19.5864 16.4844 19.1895 16.0762 19.1895 15.5781V10.4033C19.1894 8.88997 17.9811 7.66408 16.5039 7.66406C15.0254 7.66406 13.8185 8.89121 13.8184 10.4033V15.5781C13.8184 16.0762 13.4214 16.4844 12.9258 16.4844C12.4303 16.4842 12.0332 16.0761 12.0332 15.5781V10.4033C12.0333 7.8966 14.0365 5.84984 16.5049 5.84961Z" fill="#0B3204" stroke="#0B3204" stroke-width="0.3"/>
</svg>
